<svg id="visual" viewBox="0 0 1920 1080" width="1920" height="1080" xmlns="http://www.w3.org/2000/svg" xmlns:xlink="http://www.w3.org/1999/xlink" version="1.1"><rect x="0" y="0" width="1920" height="1080" fill="#140021"></rect><path d="M0 583L274 583L274 648L549 648L549 494L823 494L823 615L1097 615L1097 583L1371 583L1371 513L1646 513L1646 628L1920 628L1920 565L1920 1081L1920 1081L1646 1081L1646 1081L1371 1081L1371 1081L1097 1081L1097 1081L823 1081L823 1081L549 1081L549 1081L274 1081L274 1081L0 1081Z" fill="#9900ff"></path><path d="M0 765L274 765L274 836L549 836L549 753L823 753L823 822L1097 822L1097 814L1371 814L1371 756L1646 756L1646 712L1920 712L1920 803L1920 1081L1920 1081L1646 1081L1646 1081L1371 1081L1371 1081L1097 1081L1097 1081L823 1081L823 1081L549 1081L549 1081L274 1081L274 1081L0 1081Z" fill="#7700c6"></path><path d="M0 856L274 856L274 933L549 933L549 814L823 814L823 870L1097 870L1097 800L1371 800L1371 953L1646 953L1646 942L1920 942L1920 945L1920 1081L1920 1081L1646 1081L1646 1081L1371 1081L1371 1081L1097 1081L1097 1081L823 1081L823 1081L549 1081L549 1081L274 1081L274 1081L0 1081Z" fill="#560090"></path></svg>